<!DOCTYPE svg PUBLIC "-//W3C//DTD SVG 20010904//EN" "http://www.w3.org/TR/2001/REC-SVG-20010904/DTD/svg10.dtd">
<svg version="1.0" xmlns="http://www.w3.org/2000/svg" width="968px" height="319px" viewBox="0 0 9680 3190" preserveAspectRatio="xMidYMid meet">
<g id="layer101" fill="#2e2e2e" stroke="none">
 <path d="M0 1595 l0 -1595 4840 0 4840 0 0 1595 0 1595 -4840 0 -4840 0 0 -1595z"/>
 </g>
<g id="layer102" fill="#3a648e" stroke="none">
 <path d="M0 1595 l0 -1595 4840 0 4840 0 0 1595 0 1595 -4840 0 -4840 0 0 -1595z m5431 1116 c2658 -14 3591 -21 3607 -30 47 -25 37 -104 -15 -117 -15 -4 -1899 2 -4186 13 -3961 19 -4158 21 -4177 38 -24 22 -26 72 -3 97 15 17 47 18 602 18 322 -1 2200 -9 4172 -19z m-2089 -778 c102 -83 102 -82 89 -210 -6 -59 -14 -124 -17 -144 -5 -34 -2 -38 50 -78 31 -23 62 -44 69 -47 9 -3 47 65 121 218 59 123 115 229 124 236 8 6 28 12 43 12 22 0 42 -18 113 -106 47 -58 86 -114 86 -123 0 -10 -11 -143 -25 -296 -20 -225 -23 -281 -13 -291 7 -7 51 -42 97 -78 96 -75 126 -114 141 -182 17 -73 -2 -142 -53 -200 -50 -57 -105 -83 -175 -84 -71 0 -119 25 -230 120 -51 44 -97 78 -101 76 -10 -6 -444 -128 -525 -147 -35 -9 -46 -6 -145 47 -127 67 -141 79 -141 115 0 33 13 45 244 214 l178 130 -59 52 c-32 29 -64 53 -70 53 -11 0 -93 -23 -218 -61 -60 -18 -80 -11 -164 57 -120 98 -119 123 6 201 43 26 92 57 109 68 17 11 60 38 96 60 51 31 68 49 81 80 9 22 43 109 77 194 33 85 66 158 72 163 33 21 72 7 140 -49z"/>
 <path d="M3202 1662 l-62 -159 -140 -88 c-77 -48 -143 -92 -146 -97 -4 -6 1 -17 9 -25 17 -18 13 -18 197 36 58 17 114 28 125 24 11 -3 71 -53 132 -111 128 -119 134 -134 80 -185 -29 -28 -125 -100 -309 -231 -31 -23 -57 -43 -57 -47 -1 -3 18 -14 42 -25 51 -25 18 -31 397 76 102 29 196 55 210 57 27 5 41 -5 185 -129 71 -62 82 -68 123 -68 37 0 50 6 78 34 37 37 44 74 22 121 -7 15 -59 63 -115 107 -57 44 -110 90 -118 102 -13 20 -12 57 12 318 l27 295 -30 36 c-16 21 -31 37 -34 37 -3 0 -50 -93 -104 -207 -55 -115 -106 -216 -114 -225 -30 -35 -65 -22 -191 71 -66 50 -124 98 -130 109 -7 13 -5 63 5 161 15 145 12 171 -20 171 -7 0 -40 -71 -74 -158z"/>
 </g>
<g id="layer103" fill="#436f9b" stroke="none">
 <path d="M0 1595 l0 -1595 4840 0 4840 0 0 1595 0 1595 -4840 0 -4840 0 0 -1595z m5431 1116 c2658 -14 3591 -21 3607 -30 47 -25 37 -104 -15 -117 -15 -4 -1899 2 -4186 13 -3961 19 -4158 21 -4177 38 -24 22 -26 72 -3 97 15 17 47 18 602 18 322 -1 2200 -9 4172 -19z m-2089 -778 c102 -83 102 -82 89 -210 -6 -59 -14 -124 -17 -144 -5 -34 -2 -38 50 -78 31 -23 62 -44 69 -47 9 -3 47 65 121 218 59 123 115 229 124 236 8 6 28 12 43 12 22 0 42 -18 113 -106 47 -58 86 -114 86 -123 0 -10 -11 -143 -25 -296 -20 -225 -23 -281 -13 -291 7 -7 51 -42 97 -78 96 -75 126 -114 141 -182 17 -73 -2 -142 -53 -200 -50 -57 -105 -83 -175 -84 -71 0 -119 25 -230 120 -51 44 -97 78 -101 76 -10 -6 -444 -128 -525 -147 -35 -9 -46 -6 -145 47 -127 67 -141 79 -141 115 0 33 13 45 244 214 l178 130 -59 52 c-32 29 -64 53 -70 53 -11 0 -93 -23 -218 -61 -60 -18 -80 -11 -164 57 -120 98 -119 123 6 201 43 26 92 57 109 68 17 11 60 38 96 60 51 31 68 49 81 80 9 22 43 109 77 194 33 85 66 158 72 163 33 21 72 7 140 -49z m3919 33 c9 -4 20 -6 25 -5 22 5 151 -56 206 -99 40 -30 118 -126 118 -145 0 -3 -23 -11 -52 -17 -43 -11 -53 -11 -56 0 -11 33 -90 103 -149 132 -60 29 -72 32 -171 32 -102 1 -111 -1 -173 -31 -116 -57 -211 -190 -226 -314 l-6 -49 452 0 451 0 0 -67 c0 -194 -116 -380 -289 -466 -40 -20 -82 -37 -92 -37 -10 0 -20 -3 -22 -7 -6 -9 -195 -9 -217 0 -8 4 -40 16 -71 27 -151 55 -274 192 -314 348 -9 37 -19 74 -22 82 -6 20 -7 126 0 137 2 4 8 30 12 58 14 98 81 214 175 302 43 41 160 101 212 109 21 4 40 9 42 13 6 8 147 6 167 -3z m-4665 -4 c5 -5 28 -14 52 -21 46 -13 47 -17 26 -92 -5 -16 -51 -19 -86 -4 -10 4 -26 4 -35 0 -10 -5 -22 -9 -28 -9 -32 -4 -57 -21 -73 -49 -16 -29 -17 -86 -20 -670 l-3 -637 -54 0 -55 0 0 672 c0 659 0 672 21 714 28 59 75 86 163 95 39 3 73 7 77 8 3 0 9 -3 15 -7z m-1396 -274 l0 -263 257 3 c169 2 260 -1 267 -8 5 -5 20 -10 31 -10 43 0 143 -60 195 -117 94 -103 136 -222 127 -357 -10 -152 -115 -308 -251 -376 -33 -17 -67 -30 -76 -30 -9 0 -20 -3 -26 -8 -5 -4 -155 -5 -334 -2 l-325 5 -3 700 c-1 385 0 706 3 713 3 8 27 12 70 12 l65 0 0 -262z m3270 -61 l0 -324 30 -59 c100 -200 368 -304 508 -197 42 32 79 108 88 182 4 31 8 63 10 71 1 8 3 158 3 333 l1 317 56 0 55 0 -3 -397 c-4 -380 -5 -401 -26 -465 -27 -80 -92 -158 -154 -183 -42 -17 -182 -25 -218 -12 -8 3 -39 13 -69 22 -74 24 -167 90 -224 161 -26 32 -51 59 -55 59 -4 0 -9 -54 -12 -120 l-5 -120 -45 0 -45 0 -3 528 -2 527 55 0 55 0 0 -323z m1190 -5 l0 -328 26 -52 c54 -109 189 -218 281 -227 15 -1 36 -6 46 -10 27 -11 117 4 157 26 42 24 76 70 98 136 13 40 17 110 20 416 l3 367 60 0 59 0 0 -344 c0 -392 -9 -479 -62 -578 -30 -56 -80 -106 -123 -122 -143 -53 -352 4 -477 130 -32 32 -60 65 -63 75 -3 9 -12 20 -20 23 -20 7 -25 -17 -28 -139 l-2 -100 -45 0 -45 0 -3 528 -2 527 60 0 60 0 0 -328z m2386 -19 l2 -343 25 -42 c66 -112 221 -204 329 -196 l33 3 0 -60 0 -60 -43 -6 c-24 -3 -45 -2 -48 3 -3 4 -12 8 -21 8 -35 0 -211 109 -213 132 0 13 -63 108 -71 108 -5 0 -10 -57 -11 -127 l-3 -128 -50 0 -50 0 -3 528 -2 528 62 -3 63 -3 1 -342z m572 250 l-3 -98 -52 -3 -53 -3 0 100 0 101 55 0 56 0 -3 -97z"/>
 <path d="M3202 1662 l-62 -159 -140 -88 c-77 -48 -143 -92 -146 -97 -4 -6 1 -17 9 -25 17 -18 13 -18 197 36 58 17 114 28 125 24 11 -3 71 -53 132 -111 128 -119 134 -134 80 -185 -29 -28 -125 -100 -309 -231 -31 -23 -57 -43 -57 -47 -1 -3 18 -14 42 -25 51 -25 18 -31 397 76 102 29 196 55 210 57 27 5 41 -5 185 -129 71 -62 82 -68 123 -68 37 0 50 6 78 34 37 37 44 74 22 121 -7 15 -59 63 -115 107 -57 44 -110 90 -118 102 -13 20 -12 57 12 318 l27 295 -30 36 c-16 21 -31 37 -34 37 -3 0 -50 -93 -104 -207 -55 -115 -106 -216 -114 -225 -30 -35 -65 -22 -191 71 -66 50 -124 98 -130 109 -7 13 -5 63 5 161 15 145 12 171 -20 171 -7 0 -40 -71 -74 -158z"/>
 <path d="M6783 1372 c-17 -10 1 -93 35 -167 51 -108 178 -205 276 -210 22 -1 49 -5 59 -9 9 -5 25 -5 35 -1 9 4 35 9 57 10 91 5 210 88 268 187 24 41 57 147 57 182 0 14 -38 16 -387 16 -214 0 -393 -4 -400 -8z"/>
 <path d="M1200 967 l0 -329 268 4 c261 3 268 4 315 28 61 31 112 86 145 159 34 72 37 187 7 271 -25 68 -125 174 -175 185 -18 4 -151 8 -296 9 l-264 1 0 -328z"/>
 </g>
<g id="layer104" fill="#487aaa" stroke="none">
 <path d="M0 1595 l0 -1595 4840 0 4840 0 0 1595 0 1595 -4840 0 -4840 0 0 -1595z m5431 1116 c2658 -14 3591 -21 3607 -30 47 -25 37 -104 -15 -117 -15 -4 -1899 2 -4186 13 -3961 19 -4158 21 -4177 38 -24 22 -26 72 -3 97 15 17 47 18 602 18 322 -1 2200 -9 4172 -19z m-2089 -778 c102 -83 102 -82 89 -210 -6 -59 -14 -124 -17 -144 -5 -34 -2 -38 50 -78 31 -23 62 -44 69 -47 9 -3 47 65 121 218 59 123 115 229 124 236 8 6 28 12 43 12 22 0 42 -18 113 -106 47 -58 86 -114 86 -123 0 -10 -11 -143 -25 -296 -20 -225 -23 -281 -13 -291 7 -7 51 -42 97 -78 96 -75 126 -114 141 -182 17 -73 -2 -142 -53 -200 -50 -57 -105 -83 -175 -84 -71 0 -119 25 -230 120 -51 44 -97 78 -101 76 -10 -6 -444 -128 -525 -147 -35 -9 -46 -6 -145 47 -127 67 -141 79 -141 115 0 33 13 45 244 214 l178 130 -59 52 c-32 29 -64 53 -70 53 -11 0 -93 -23 -218 -61 -60 -18 -80 -11 -164 57 -120 98 -119 123 6 201 43 26 92 57 109 68 17 11 60 38 96 60 51 31 68 49 81 80 9 22 43 109 77 194 33 85 66 158 72 163 33 21 72 7 140 -49z m3916 34 c7 -5 19 -6 27 -3 8 3 17 1 20 -4 3 -4 23 -11 45 -15 22 -4 62 -21 88 -39 26 -18 52 -35 58 -37 16 -5 82 -86 100 -122 14 -26 14 -30 -2 -42 -10 -7 -24 -11 -30 -8 -7 2 -15 0 -18 -5 -11 -18 -40 -2 -64 34 -37 57 -136 120 -201 129 -14 2 -26 4 -26 5 0 1 -31 3 -70 5 -43 2 -90 -3 -121 -12 -57 -18 -151 -78 -168 -108 -6 -11 -17 -24 -24 -28 -16 -11 -84 -151 -81 -169 1 -7 -1 -21 -5 -30 -21 -48 -27 -48 456 -50 l453 -3 3 -43 c2 -24 -2 -50 -8 -57 -6 -8 -10 -22 -9 -32 1 -10 0 -25 -3 -33 -3 -8 -14 -37 -23 -65 -53 -152 -167 -268 -319 -325 -61 -22 -85 -26 -171 -25 -116 2 -199 27 -281 86 -27 19 -57 38 -67 42 -9 4 -20 15 -24 24 -3 10 -17 31 -30 47 -35 42 -80 136 -93 192 -7 27 -14 56 -17 64 -8 24 -9 161 -1 167 5 2 8 14 8 26 1 37 45 152 79 200 17 25 31 49 31 53 0 11 62 74 73 74 4 0 29 16 54 35 26 20 66 41 90 47 24 6 46 14 48 19 3 4 12 6 20 3 7 -3 20 -2 29 3 19 11 157 10 174 0z m-4643 -11 c72 -13 90 -33 71 -77 -4 -9 -6 -22 -4 -30 2 -11 -15 -14 -88 -14 -98 0 -118 -8 -135 -54 -6 -14 -11 -297 -12 -660 l-2 -636 -70 0 -70 0 1 655 c0 360 3 664 6 675 13 57 53 103 121 140 17 9 135 10 182 1z m-1413 -267 l3 -260 247 1 c228 1 252 -1 315 -21 37 -12 85 -33 105 -46 21 -12 41 -23 46 -23 12 0 50 -42 73 -81 40 -70 87 -168 82 -173 -3 -2 -1 -11 3 -18 12 -18 12 -180 0 -196 -5 -7 -6 -15 -3 -18 15 -16 -141 -254 -167 -254 -6 0 -29 -14 -50 -30 -22 -17 -47 -30 -56 -30 -9 0 -20 -3 -24 -7 -3 -4 -16 -8 -29 -10 -39 -5 -670 -2 -679 3 -9 6 -11 1408 -1 1417 3 4 35 7 70 7 l63 0 2 -261z m3285 -81 c2 -388 0 -376 102 -478 95 -95 225 -142 326 -119 58 13 115 45 115 64 0 7 7 15 14 18 16 6 49 104 40 118 -3 5 -2 14 2 20 3 6 6 170 5 365 l-2 355 73 -3 73 -3 -2 -345 c-2 -342 -4 -411 -15 -440 -14 -36 -38 -120 -38 -133 0 -8 -7 -17 -15 -21 -8 -3 -19 -16 -25 -30 -6 -16 -32 -36 -77 -58 -63 -32 -74 -34 -158 -32 -49 1 -92 3 -95 4 -3 2 -10 4 -16 4 -5 1 -50 21 -100 45 -71 35 -100 57 -142 105 -30 34 -58 68 -62 76 -17 28 -25 -3 -30 -113 l-5 -112 -55 0 -55 0 -3 515 c-1 283 0 521 3 528 3 9 24 12 72 10 l68 -3 2 -337z m1173 19 l0 -324 31 -62 c17 -34 40 -67 50 -74 10 -6 19 -17 19 -24 0 -7 7 -13 15 -13 8 0 21 -10 30 -23 16 -24 133 -92 142 -83 4 3 12 1 19 -4 6 -6 16 -10 20 -8 5 1 23 -1 40 -6 42 -10 122 10 161 40 34 26 73 90 77 128 1 12 6 28 10 34 4 7 5 24 2 37 -3 13 -2 27 4 30 6 4 10 128 10 341 l0 334 60 0 59 0 3 -362 c2 -200 -1 -369 -6 -375 -4 -7 -6 -24 -4 -38 3 -14 1 -28 -3 -31 -5 -3 -9 -13 -9 -22 0 -29 -56 -136 -86 -164 -60 -56 -111 -74 -204 -72 -47 0 -92 4 -100 7 -8 3 -39 13 -68 22 -29 9 -76 32 -103 51 -28 19 -53 34 -56 34 -6 0 -63 60 -63 66 0 8 -44 64 -49 64 -3 0 -6 -53 -6 -117 l0 -118 -55 0 -55 0 -3 528 -2 527 60 0 60 0 0 -323z m2387 -18 c1 -324 2 -338 23 -379 44 -86 170 -183 252 -194 13 -2 30 -6 38 -10 8 -3 29 -5 45 -3 l30 2 0 -60 0 -60 -45 -6 c-26 -4 -51 -2 -58 4 -7 5 -15 7 -19 4 -12 -13 -213 124 -213 145 0 4 -13 28 -30 54 -19 31 -31 42 -35 33 -2 -8 -6 -66 -7 -129 l-3 -115 -57 -3 -58 -3 0 531 0 531 68 -3 67 -3 2 -336z m571 244 l-3 -98 -52 -3 -53 -3 0 100 0 101 55 0 56 0 -3 -97z"/>
 <path d="M3202 1662 l-62 -159 -140 -88 c-77 -48 -143 -92 -146 -97 -4 -6 1 -17 9 -25 17 -18 13 -18 197 36 58 17 114 28 125 24 11 -3 71 -53 132 -111 128 -119 134 -134 80 -185 -29 -28 -125 -100 -309 -231 -31 -23 -57 -43 -57 -47 -1 -3 18 -14 42 -25 51 -25 18 -31 397 76 102 29 196 55 210 57 27 5 41 -5 185 -129 71 -62 82 -68 123 -68 37 0 50 6 78 34 37 37 44 74 22 121 -7 15 -59 63 -115 107 -57 44 -110 90 -118 102 -13 20 -12 57 12 318 l27 295 -30 36 c-16 21 -31 37 -34 37 -3 0 -50 -93 -104 -207 -55 -115 -106 -216 -114 -225 -30 -35 -65 -22 -191 71 -66 50 -124 98 -130 109 -7 13 -5 63 5 161 15 145 12 171 -20 171 -7 0 -40 -71 -74 -158z"/>
 <path d="M6780 1346 c0 -14 4 -27 10 -31 5 -3 7 -12 4 -20 -15 -37 104 -225 142 -225 8 0 14 -4 14 -10 0 -13 75 -51 109 -55 14 -2 26 -4 26 -5 0 -2 70 -10 90 -10 47 -2 114 13 160 34 103 47 215 190 220 282 1 19 5 38 9 41 3 3 6 10 6 15 0 4 -178 8 -395 8 l-395 0 0 -24z"/>
 <path d="M1200 967 l0 -328 258 1 257 2 62 30 c71 34 105 70 142 148 22 48 25 68 24 155 0 79 -5 110 -22 148 -25 58 -108 141 -156 157 -22 7 -132 12 -300 13 l-265 2 0 -328z"/>
 </g>
<g id="layer105" fill="#5386b6" stroke="none">
 <path d="M0 1595 l0 -1595 4840 0 4840 0 0 1595 0 1595 -4840 0 -4840 0 0 -1595z m5431 1116 c2658 -14 3591 -21 3607 -30 47 -25 37 -104 -15 -117 -15 -4 -1899 2 -4186 13 -3961 19 -4158 21 -4177 38 -24 22 -26 72 -3 97 15 17 47 18 602 18 322 -1 2200 -9 4172 -19z m-2089 -778 c102 -83 102 -82 89 -210 -6 -59 -14 -124 -17 -144 -5 -34 -2 -38 50 -78 31 -23 62 -44 69 -47 9 -3 47 65 121 218 59 123 115 229 124 236 8 6 28 12 43 12 22 0 42 -18 113 -106 47 -58 86 -114 86 -123 0 -10 -11 -143 -25 -296 -20 -225 -23 -281 -13 -291 7 -7 51 -42 97 -78 96 -75 126 -114 141 -182 17 -73 -2 -142 -53 -200 -50 -57 -105 -83 -175 -84 -71 0 -119 25 -230 120 -51 44 -97 78 -101 76 -10 -6 -444 -128 -525 -147 -35 -9 -46 -6 -145 47 -127 67 -141 79 -141 115 0 33 13 45 244 214 l178 130 -59 52 c-32 29 -64 53 -70 53 -11 0 -93 -23 -218 -61 -60 -18 -80 -11 -164 57 -120 98 -119 123 6 201 43 26 92 57 109 68 17 11 60 38 96 60 51 31 68 49 81 80 9 22 43 109 77 194 33 85 66 158 72 163 33 21 72 7 140 -49z m3933 34 c106 -21 191 -63 258 -131 55 -55 105 -125 90 -127 -9 -1 -22 -4 -38 -9 -5 -1 -14 -3 -20 -4 -5 -1 -19 -6 -29 -11 -15 -7 -25 -1 -47 26 -58 69 -75 84 -138 116 -52 27 -95 35 -196 36 -57 1 -81 -4 -129 -27 -67 -33 -183 -143 -193 -185 -3 -14 -14 -41 -24 -60 -10 -19 -16 -45 -13 -57 3 -12 1 -25 -5 -28 -36 -23 20 -26 438 -26 383 0 450 -2 461 -15 8 -9 10 -32 6 -67 -7 -68 -13 -103 -16 -103 -1 0 -4 -12 -5 -27 -2 -14 -22 -59 -44 -98 -23 -39 -41 -76 -41 -81 0 -5 -4 -9 -9 -9 -5 0 -18 -16 -30 -35 -11 -19 -32 -40 -46 -45 -14 -5 -25 -14 -25 -19 0 -5 -8 -11 -17 -15 -10 -3 -42 -19 -71 -36 -30 -17 -68 -33 -85 -36 -39 -8 -232 -8 -269 -1 -48 9 -166 71 -181 95 -4 6 -13 12 -19 12 -16 0 -68 51 -68 66 0 7 -6 17 -12 21 -28 18 -95 154 -103 208 -27 188 0 327 82 441 13 17 23 35 23 40 0 13 83 94 97 94 6 0 16 6 20 14 8 14 85 56 102 56 5 0 22 5 38 11 15 7 39 13 52 15 13 1 25 4 26 6 5 4 154 0 180 -5z m-4620 -17 c22 -7 43 -14 46 -16 4 -2 1 -25 -5 -51 l-12 -48 -80 0 c-97 0 -138 -19 -148 -66 -3 -17 -6 -311 -6 -653 0 -470 -3 -625 -12 -634 -17 -17 -113 -15 -127 2 -9 10 -11 186 -9 677 l3 664 27 40 c44 64 53 74 87 88 41 17 180 15 236 -3z m-1453 -260 l3 -260 265 -4 c146 -2 276 -6 290 -9 14 -3 30 -6 36 -6 7 -1 35 -17 63 -36 28 -19 55 -35 60 -35 13 0 91 -90 91 -105 0 -7 7 -18 15 -25 8 -7 15 -19 15 -26 0 -8 9 -34 21 -58 11 -25 23 -62 25 -83 9 -78 11 -108 5 -118 -3 -5 -7 -25 -8 -43 -2 -37 -61 -172 -75 -172 -5 0 -11 -7 -15 -16 -12 -32 -109 -120 -153 -138 -25 -10 -53 -23 -64 -28 -19 -10 -691 -12 -708 -2 -9 6 -11 1407 -1 1417 3 4 35 7 70 7 l63 0 2 -260z m3285 -70 c1 -179 5 -334 8 -345 12 -39 40 -87 52 -92 7 -3 13 -11 13 -17 0 -14 38 -52 68 -70 60 -35 128 -71 137 -72 6 0 17 -4 25 -7 58 -22 177 -4 211 31 37 41 81 127 85 167 1 22 3 197 3 388 l0 348 73 -3 73 -3 -1 -355 c-2 -406 -2 -421 -15 -436 -5 -7 -9 -16 -8 -20 1 -5 0 -16 -3 -24 -3 -8 -11 -33 -18 -55 -15 -47 -64 -113 -94 -126 -12 -5 -28 -13 -36 -17 -48 -28 -65 -30 -161 -28 -73 2 -113 8 -134 19 -16 9 -37 17 -45 17 -47 1 -220 141 -220 179 0 5 -7 14 -16 22 -13 11 -15 11 -14 -2 1 -7 2 -63 1 -122 l-1 -108 -62 3 -63 3 -3 515 c-1 283 0 521 3 528 3 9 24 12 72 10 l68 -3 2 -325z m1173 10 c0 -176 4 -328 9 -338 5 -9 14 -28 20 -42 43 -93 187 -220 250 -220 11 0 22 -4 25 -9 3 -4 35 -9 72 -10 90 -2 164 33 201 96 14 24 23 46 20 49 -3 4 -1 18 5 33 16 42 19 89 25 434 l5 327 69 0 69 0 0 -309 c0 -217 -3 -312 -11 -317 -8 -4 -9 -26 -5 -64 5 -39 3 -61 -4 -65 -7 -4 -9 -18 -6 -30 3 -13 2 -26 -3 -29 -5 -3 -8 -17 -8 -30 0 -32 -40 -113 -58 -120 -8 -3 -15 -12 -15 -20 0 -9 -29 -29 -67 -48 -60 -29 -78 -33 -158 -35 -49 0 -95 3 -102 9 -7 5 -16 7 -21 4 -10 -6 -136 55 -162 79 -9 8 -20 15 -25 15 -14 0 -115 112 -115 128 0 8 -3 12 -6 9 -4 -4 -7 -57 -8 -119 l-1 -113 -62 -3 -63 -3 0 531 0 530 65 0 65 0 0 -320z m2387 -10 c2 -314 4 -348 24 -380 5 -8 13 -25 19 -37 5 -13 14 -23 20 -23 5 0 10 -7 10 -15 0 -8 12 -22 28 -32 15 -10 30 -21 33 -26 7 -9 43 -32 69 -43 8 -3 24 -10 35 -14 29 -12 75 -22 115 -23 l35 -2 3 -53 c4 -71 -6 -82 -73 -77 -108 9 -226 89 -290 199 -15 26 -30 44 -34 41 -3 -4 -8 -59 -11 -123 l-5 -117 -57 -3 -58 -3 0 531 0 531 68 -3 67 -3 2 -325z m571 233 l-3 -98 -52 -3 -53 -3 0 100 0 101 55 0 56 0 -3 -97z"/>
 <path d="M3202 1662 l-62 -159 -140 -88 c-77 -48 -143 -92 -146 -97 -4 -6 1 -17 9 -25 17 -18 13 -18 197 36 58 17 114 28 125 24 11 -3 71 -53 132 -111 128 -119 134 -134 80 -185 -29 -28 -125 -100 -309 -231 -31 -23 -57 -43 -57 -47 -1 -3 18 -14 42 -25 51 -25 18 -31 397 76 102 29 196 55 210 57 27 5 41 -5 185 -129 71 -62 82 -68 123 -68 37 0 50 6 78 34 37 37 44 74 22 121 -7 15 -59 63 -115 107 -57 44 -110 90 -118 102 -13 20 -12 57 12 318 l27 295 -30 36 c-16 21 -31 37 -34 37 -3 0 -50 -93 -104 -207 -55 -115 -106 -216 -114 -225 -30 -35 -65 -22 -191 71 -66 50 -124 98 -130 109 -7 13 -5 63 5 161 15 145 12 171 -20 171 -7 0 -40 -71 -74 -158z"/>
 <path d="M6784 1348 c4 -13 9 -38 11 -57 2 -18 8 -38 14 -44 6 -6 11 -16 11 -23 0 -19 81 -135 99 -142 9 -3 37 -21 63 -39 26 -18 59 -33 72 -33 14 0 27 -4 30 -9 4 -5 49 -8 101 -6 98 4 166 24 194 58 7 10 18 17 23 17 13 0 68 56 68 69 0 6 4 11 9 11 11 0 61 101 61 123 0 9 4 19 10 22 5 3 8 20 6 38 l-3 32 -388 3 -387 2 6 -22z"/>
 <path d="M1204 1285 c-3 -6 -3 -152 -2 -325 l3 -315 248 -1 c291 -2 317 4 399 86 68 68 89 122 92 227 0 47 -2 87 -7 90 -4 2 -5 8 -2 13 11 17 -48 124 -92 166 -24 24 -59 48 -78 54 -44 15 -556 19 -561 5z"/>
 </g>
<g id="layer106" fill="#c3dcf2" stroke="none">
 <path d="M0 1595 l0 -1595 4840 0 4840 0 0 1595 0 1595 -4840 0 -4840 0 0 -1595z m5431 1116 c2658 -14 3591 -21 3607 -30 47 -25 37 -104 -15 -117 -15 -4 -1899 2 -4186 13 -3961 19 -4158 21 -4177 38 -24 22 -26 72 -3 97 15 17 47 18 602 18 322 -1 2200 -9 4172 -19z m-2089 -778 c102 -83 102 -82 89 -210 -6 -59 -14 -124 -17 -144 -5 -34 -2 -38 50 -78 31 -23 62 -44 69 -47 9 -3 47 65 121 218 59 123 115 229 124 236 8 6 28 12 43 12 22 0 42 -18 113 -106 47 -58 86 -114 86 -123 0 -10 -11 -143 -25 -296 -20 -225 -23 -281 -13 -291 7 -7 51 -42 97 -78 96 -75 126 -114 141 -182 17 -73 -2 -142 -53 -200 -50 -57 -105 -83 -175 -84 -71 0 -119 25 -230 120 -51 44 -97 78 -101 76 -10 -6 -444 -128 -525 -147 -35 -9 -46 -6 -145 47 -127 67 -141 79 -141 115 0 33 13 45 244 214 l178 130 -59 52 c-32 29 -64 53 -70 53 -11 0 -93 -23 -218 -61 -60 -18 -80 -11 -164 57 -120 98 -119 123 6 201 43 26 92 57 109 68 17 11 60 38 96 60 51 31 68 49 81 80 9 22 43 109 77 194 33 85 66 158 72 163 33 21 72 7 140 -49z m3957 32 c84 -20 189 -76 240 -128 46 -47 95 -123 84 -130 -5 -2 -33 -10 -62 -17 -54 -13 -55 -12 -70 11 -93 147 -312 204 -476 125 -102 -51 -202 -188 -219 -303 l-6 -43 456 0 455 0 -2 -67 c-7 -226 -139 -420 -340 -505 -47 -19 -72 -22 -189 -23 l-135 0 -85 41 c-103 50 -165 103 -219 188 -56 89 -83 173 -88 281 -9 169 44 312 158 428 132 133 314 185 498 142z m-4665 -10 c32 -9 62 -17 66 -20 7 -5 -10 -99 -21 -109 -3 -3 -31 -1 -63 5 -73 13 -120 -1 -147 -45 -18 -30 -19 -58 -19 -673 l0 -643 -75 0 -76 0 3 682 3 683 24 43 c48 83 166 113 305 77z m-1424 -259 l0 -264 278 -4 279 -3 77 -39 c149 -76 238 -218 250 -399 10 -171 -108 -362 -271 -440 l-68 -32 -347 -3 -348 -3 0 725 0 726 75 0 75 0 0 -264z m3280 -69 l0 -333 27 -53 c31 -64 116 -152 174 -182 185 -94 324 -52 382 114 7 20 13 171 16 407 l6 375 73 3 74 3 -4 -393 -4 -393 -28 -80 c-33 -97 -79 -155 -148 -189 -44 -22 -65 -26 -138 -26 -149 0 -269 50 -375 157 -35 35 -66 63 -69 63 -3 0 -6 -47 -6 -105 l0 -106 -62 3 -63 3 -3 533 -2 532 75 0 75 0 0 -333z m1180 6 c0 -326 0 -328 24 -380 88 -189 340 -299 476 -209 50 33 87 106 101 199 5 34 9 210 9 390 l0 328 73 -3 72 -3 -1 -375 c0 -323 -2 -384 -17 -440 -34 -126 -83 -196 -163 -235 -60 -30 -205 -33 -292 -6 -83 25 -175 84 -234 150 -26 28 -49 51 -52 51 -3 0 -7 -46 -8 -102 l-3 -103 -62 -3 -63 -3 0 536 0 535 70 0 70 0 0 -327z m2380 -6 l0 -333 25 -51 c55 -109 177 -195 301 -211 l59 -7 3 -69 3 -69 -64 5 c-96 8 -167 45 -249 129 -37 39 -68 75 -68 80 0 5 -4 9 -10 9 -6 0 -10 -43 -10 -110 l0 -110 -65 0 -65 0 0 519 c0 286 -3 526 -6 535 -5 14 5 16 70 16 l76 0 0 -333z m580 228 l0 -105 -60 0 -60 0 0 89 c0 49 -3 96 -6 105 -5 14 4 16 60 16 l66 0 0 -105z"/>
 <path d="M3202 1662 l-62 -159 -140 -88 c-77 -48 -143 -92 -146 -97 -4 -6 1 -17 9 -25 17 -18 13 -18 197 36 58 17 114 28 125 24 11 -3 71 -53 132 -111 128 -119 134 -134 80 -185 -29 -28 -125 -100 -309 -231 -31 -23 -57 -43 -57 -47 -1 -3 18 -14 42 -25 51 -25 18 -31 397 76 102 29 196 55 210 57 27 5 41 -5 185 -129 71 -62 82 -68 123 -68 37 0 50 6 78 34 37 37 44 74 22 121 -7 15 -59 63 -115 107 -57 44 -110 90 -118 102 -13 20 -12 57 12 318 l27 295 -30 36 c-16 21 -31 37 -34 37 -3 0 -50 -93 -104 -207 -55 -115 -106 -216 -114 -225 -30 -35 -65 -22 -191 71 -66 50 -124 98 -130 109 -7 13 -5 63 5 161 15 145 12 171 -20 171 -7 0 -40 -71 -74 -158z"/>
 <path d="M6794 1356 c-7 -18 21 -117 48 -170 11 -21 40 -59 64 -82 114 -112 289 -142 433 -72 62 30 141 111 174 178 27 55 49 144 39 155 -3 3 -173 5 -379 5 -317 0 -374 -2 -379 -14z"/>
 <path d="M1212 968 l3 -323 205 -3 c259 -3 317 5 390 56 44 31 62 53 93 113 34 67 38 82 38 150 0 135 -49 234 -146 294 l-48 30 -269 3 -268 3 2 -323z"/>
 </g>
<g id="layer107" fill="#d4e7f8" stroke="none">
 <path d="M0 1595 l0 -1595 4840 0 4840 0 0 1595 0 1595 -4840 0 -4840 0 0 -1595z m5431 1116 c2658 -14 3591 -21 3607 -30 47 -25 37 -104 -15 -117 -15 -4 -1899 2 -4186 13 -3961 19 -4158 21 -4177 38 -24 22 -26 72 -3 97 15 17 47 18 602 18 322 -1 2200 -9 4172 -19z m-2089 -778 c102 -83 102 -82 89 -210 -6 -59 -14 -124 -17 -144 -5 -34 -2 -38 50 -78 31 -23 62 -44 69 -47 9 -3 47 65 121 218 59 123 115 229 124 236 8 6 28 12 43 12 22 0 42 -18 113 -106 47 -58 86 -114 86 -123 0 -10 -11 -143 -25 -296 -20 -225 -23 -281 -13 -291 7 -7 51 -42 97 -78 96 -75 126 -114 141 -182 17 -73 -2 -142 -53 -200 -50 -57 -105 -83 -175 -84 -71 0 -119 25 -230 120 -51 44 -97 78 -101 76 -10 -6 -444 -128 -525 -147 -35 -9 -46 -6 -145 47 -127 67 -141 79 -141 115 0 33 13 45 244 214 l178 130 -59 52 c-32 29 -64 53 -70 53 -11 0 -93 -23 -218 -61 -60 -18 -80 -11 -164 57 -120 98 -119 123 6 201 43 26 92 57 109 68 17 11 60 38 96 60 51 31 68 49 81 80 9 22 43 109 77 194 33 85 66 158 72 163 33 21 72 7 140 -49z m-743 31 c85 -11 126 -42 104 -78 -4 -6 -8 -23 -10 -40 -4 -38 -8 -42 -36 -28 -67 33 -162 19 -188 -29 -17 -32 -16 1 -17 -696 l-2 -623 -75 0 -75 0 0 675 c1 643 2 676 20 718 24 53 42 70 100 90 60 21 81 26 105 22 11 -2 44 -7 74 -11z m4795 -31 c99 -46 199 -131 219 -186 6 -18 10 -34 9 -36 0 -3 -26 -13 -58 -23 -64 -20 -73 -17 -99 38 -16 35 -106 104 -136 104 -8 0 -19 3 -23 8 -4 4 -35 12 -69 19 -73 13 -184 -5 -229 -37 -15 -11 -30 -20 -33 -20 -12 0 -105 -93 -105 -106 0 -3 -9 -17 -20 -31 -11 -14 -20 -32 -20 -39 0 -7 -5 -25 -11 -41 -7 -15 -13 -35 -15 -43 -1 -8 -6 -25 -9 -37 l-7 -23 457 0 457 0 -6 -87 c-3 -49 -6 -96 -6 -105 -1 -10 -5 -20 -11 -23 -5 -4 -9 -14 -9 -23 0 -34 -62 -137 -122 -204 -107 -118 -245 -170 -419 -157 -80 6 -109 13 -172 42 -74 34 -187 110 -187 126 0 4 -11 20 -25 35 -34 36 -71 118 -86 191 -7 33 -15 65 -19 70 -3 6 -4 42 -3 80 5 98 7 119 14 130 4 6 10 26 14 45 18 93 105 218 190 276 118 80 195 103 335 100 111 -2 118 -4 204 -43z m-6182 -238 l-3 -265 258 -1 c142 -1 262 -1 266 0 4 1 38 -11 75 -25 71 -29 182 -106 182 -128 0 -7 11 -23 25 -36 14 -13 25 -31 25 -39 0 -9 8 -30 19 -47 23 -38 32 -88 32 -189 0 -108 -1 -114 -12 -120 -5 -4 -9 -16 -9 -28 0 -32 -51 -114 -106 -173 -34 -36 -75 -64 -134 -92 l-85 -41 -342 -1 -343 0 0 725 0 725 78 0 77 0 -3 -265z m3278 -52 c0 -341 5 -381 52 -445 63 -85 153 -152 233 -173 62 -16 149 -13 185 6 46 23 119 117 104 132 -3 3 -2 12 2 19 14 23 16 48 20 403 3 193 7 356 9 363 3 8 29 12 80 12 l76 0 -5 -337 c-2 -186 -7 -363 -10 -393 -7 -66 -13 -103 -16 -110 -1 -3 -3 -9 -4 -15 -4 -24 -62 -132 -80 -150 -67 -65 -210 -95 -331 -69 -65 14 -185 72 -222 107 -12 12 -30 29 -40 39 -10 9 -26 28 -36 42 -10 14 -22 26 -27 26 -6 0 -10 -45 -10 -105 l0 -105 -70 0 -70 0 0 535 0 535 80 0 80 0 0 -317z m1180 -7 l0 -324 32 -64 c32 -62 125 -164 171 -186 77 -36 107 -45 166 -47 36 -1 73 1 81 5 67 31 93 56 114 105 9 23 19 51 21 60 1 6 3 13 5 18 9 26 12 100 16 410 l5 348 72 -3 72 -3 0 -370 c-1 -353 -6 -456 -24 -479 -4 -6 -16 -33 -26 -61 -54 -148 -209 -204 -413 -149 -45 12 -101 33 -125 47 -48 29 -140 114 -150 140 -15 40 -22 10 -19 -88 l3 -105 -70 0 -71 0 0 535 0 535 70 0 70 0 0 -324z m2392 -28 l3 -353 35 -49 c41 -58 56 -73 96 -102 56 -39 119 -63 187 -70 l67 -7 0 -67 c0 -78 -5 -83 -78 -73 -42 5 -135 43 -187 76 -28 18 -95 84 -95 94 -1 10 -36 53 -44 53 -3 0 -6 -49 -6 -110 l0 -110 -65 0 -65 0 0 519 c0 286 -3 526 -6 535 -5 14 5 16 74 16 l81 0 3 -352z m568 247 l0 -105 -60 0 -60 0 0 89 c0 49 -3 96 -6 105 -5 14 4 16 60 16 l66 0 0 -105z"/>
 <path d="M3202 1662 l-62 -159 -140 -88 c-77 -48 -143 -92 -146 -97 -4 -6 1 -17 9 -25 17 -18 13 -18 197 36 58 17 114 28 125 24 11 -3 71 -53 132 -111 128 -119 134 -134 80 -185 -29 -28 -125 -100 -309 -231 -31 -23 -57 -43 -57 -47 -1 -3 18 -14 42 -25 51 -25 18 -31 397 76 102 29 196 55 210 57 27 5 41 -5 185 -129 71 -62 82 -68 123 -68 37 0 50 6 78 34 37 37 44 74 22 121 -7 15 -59 63 -115 107 -57 44 -110 90 -118 102 -13 20 -12 57 12 318 l27 295 -30 36 c-16 21 -31 37 -34 37 -3 0 -50 -93 -104 -207 -55 -115 -106 -216 -114 -225 -30 -35 -65 -22 -191 71 -66 50 -124 98 -130 109 -7 13 -5 63 5 161 15 145 12 171 -20 171 -7 0 -40 -71 -74 -158z"/>
 <path d="M6794 1357 c-8 -22 39 -147 79 -208 56 -87 165 -146 281 -153 65 -3 157 19 203 49 47 31 133 113 133 127 0 5 9 21 20 35 11 14 20 36 20 48 0 12 3 25 8 29 4 4 7 17 8 29 1 12 3 29 5 37 3 13 -44 15 -374 18 -310 2 -378 0 -383 -11z"/>
 <path d="M1212 968 l3 -323 210 -3 c213 -3 277 4 344 35 50 24 91 54 91 69 0 7 6 17 14 21 17 10 57 88 50 96 -3 3 -3 11 2 18 4 7 9 26 11 43 10 80 -3 154 -37 209 -17 27 -30 52 -30 56 0 10 -44 51 -54 51 -4 0 -22 10 -39 23 -31 21 -41 22 -300 25 l-267 3 2 -323z"/>
 </g>
<g id="layer108" fill="#ffffff" stroke="none">
 <path d="M0 1595 l0 -1595 4840 0 4840 0 0 1595 0 1595 -4840 0 -4840 0 0 -1595z m2595 1130 c633 -3 1533 -7 2000 -10 468 -2 1449 -7 2180 -10 732 -3 1537 -7 1790 -10 l460 -5 28 -26 c33 -31 34 -44 4 -76 l-23 -25 -427 -7 c-234 -4 -431 -5 -436 -2 -5 4 -553 9 -1218 12 -1585 7 -2733 12 -4193 18 -657 3 -1395 8 -1639 11 -493 7 -484 6 -487 70 -2 63 3 64 292 68 142 2 318 2 389 0 72 -2 648 -6 1280 -8z m670 -729 c6 3 27 -9 44 -26 18 -16 37 -30 41 -30 5 0 18 -13 30 -30 12 -16 27 -30 35 -30 7 0 16 -8 20 -17 11 -26 12 -96 1 -111 -5 -7 -6 -30 -3 -52 3 -22 1 -43 -5 -46 -5 -3 -7 -23 -3 -45 4 -26 3 -45 -5 -54 -10 -12 -7 -16 14 -24 14 -6 34 -18 44 -28 10 -10 28 -24 40 -30 20 -12 24 -9 47 35 15 26 39 69 55 97 16 27 26 53 24 57 -5 8 35 89 74 147 12 19 22 42 22 51 0 10 9 29 20 43 17 22 26 25 53 20 38 -7 97 -49 97 -69 0 -7 9 -18 20 -24 11 -6 20 -17 20 -25 0 -8 5 -15 10 -15 6 0 14 -8 17 -17 4 -10 14 -28 24 -41 22 -29 35 -118 20 -136 -7 -9 -9 -30 -5 -55 4 -26 2 -46 -5 -55 -8 -10 -10 -30 -6 -59 5 -30 3 -47 -5 -52 -8 -5 -9 -23 -5 -55 4 -32 3 -50 -5 -55 -7 -5 -9 -24 -5 -60 5 -34 3 -55 -4 -59 -19 -12 -12 -36 14 -46 14 -5 25 -14 25 -20 0 -5 7 -10 15 -10 8 0 19 -9 25 -20 6 -11 17 -20 25 -20 8 0 20 -9 27 -20 7 -11 17 -20 23 -20 25 0 102 -111 90 -130 -3 -5 -1 -11 5 -15 15 -9 11 -87 -5 -109 -8 -11 -15 -29 -15 -39 0 -23 -46 -87 -62 -87 -6 0 -16 -7 -22 -16 -21 -27 -153 -50 -190 -31 -10 5 -30 10 -44 12 -14 1 -31 10 -37 19 -7 9 -16 16 -21 16 -5 0 -22 16 -37 35 -15 19 -34 35 -41 35 -7 0 -22 13 -34 29 -28 38 -73 45 -131 20 -24 -10 -47 -17 -51 -14 -5 3 -11 1 -14 -3 -3 -5 -18 -9 -33 -10 -15 0 -41 -6 -58 -13 -16 -7 -38 -13 -47 -14 -10 -1 -24 -8 -32 -14 -8 -7 -20 -10 -26 -6 -5 3 -16 3 -22 -2 -23 -14 -81 -32 -90 -27 -4 3 -30 -5 -58 -17 l-50 -21 -57 27 c-32 15 -67 35 -78 45 -11 9 -32 20 -47 24 -15 3 -40 18 -56 34 -25 23 -29 33 -24 65 3 29 10 41 28 47 13 5 33 21 46 35 12 14 28 25 35 25 7 0 13 4 13 8 0 7 85 72 95 72 2 0 16 11 31 25 15 14 31 25 36 25 6 0 17 9 26 19 10 11 33 28 52 39 36 19 55 62 27 62 -9 0 -30 18 -48 41 -25 32 -36 39 -53 34 -12 -3 -33 -8 -49 -11 -15 -2 -41 -11 -57 -19 -17 -9 -35 -13 -40 -10 -5 3 -23 -1 -39 -10 -40 -20 -130 -20 -137 0 -4 8 -12 15 -20 15 -7 0 -18 9 -24 20 -6 11 -16 20 -22 20 -20 0 -78 68 -78 92 0 31 36 88 55 88 8 0 36 16 62 36 26 20 63 42 84 51 21 8 40 21 43 29 3 8 14 14 25 14 10 0 21 7 25 15 3 8 12 15 20 15 19 0 78 68 70 81 -3 6 1 18 9 27 16 19 32 62 29 76 -2 5 4 16 13 26 8 9 12 20 9 23 -4 4 -2 12 3 19 6 7 14 27 17 45 4 17 14 37 22 44 8 6 14 21 14 33 0 11 4 27 9 34 12 20 55 40 65 31 5 -4 14 -5 21 -3z m4057 -32 c75 -18 152 -57 193 -99 19 -18 38 -34 43 -36 11 -4 82 -106 82 -118 0 -4 -32 -15 -72 -25 -70 -18 -73 -18 -83 -1 -45 80 -138 144 -245 169 -60 13 -71 13 -132 -3 -164 -44 -262 -152 -302 -333 l-6 -28 452 -2 453 -3 3 -51 c8 -135 -61 -307 -163 -409 -67 -67 -179 -130 -250 -141 -87 -13 -255 -5 -300 14 -135 57 -226 130 -284 227 -57 93 -73 156 -76 280 -4 188 37 296 158 419 94 96 183 142 297 152 30 3 57 7 59 10 7 6 111 -7 173 -22z m-4707 1 c22 -3 55 -10 72 -16 36 -11 35 -7 12 -101 -11 -43 -13 -44 -86 -21 -43 14 -58 15 -73 5 -11 -7 -26 -12 -35 -12 -8 0 -22 -16 -30 -36 -13 -31 -15 -128 -15 -681 l0 -644 -82 3 -83 3 -3 664 c-1 444 1 676 8 703 6 21 27 57 47 79 57 63 122 76 268 54z m-1403 -265 l-3 -270 253 -1 c139 0 271 -2 292 -4 155 -16 331 -215 343 -388 5 -82 5 -75 -1 -136 -16 -168 -198 -365 -358 -389 -24 -4 -187 -7 -363 -7 l-320 0 -3 720 c-1 396 0 726 3 733 3 8 29 12 82 12 l78 0 -3 -270z m3288 -75 c5 -332 6 -341 28 -386 43 -83 147 -176 222 -199 25 -7 49 -16 55 -19 17 -9 110 -4 140 8 17 7 42 24 57 38 29 28 68 118 68 157 0 12 3 25 6 28 3 3 6 165 7 359 l2 354 80 0 80 0 3 -360 c1 -198 -1 -367 -4 -375 -4 -8 -6 -25 -5 -37 1 -13 -5 -49 -14 -80 -48 -165 -130 -232 -292 -237 -150 -6 -283 44 -385 144 l-58 56 0 -93 0 -93 -80 0 -80 0 0 540 0 541 83 -3 82 -3 5 -340z m1172 23 l-3 -321 31 -63 c35 -70 112 -164 150 -183 171 -89 291 -84 358 14 28 40 52 124 52 182 0 23 5 45 10 48 7 4 10 117 10 323 l-1 317 76 3 76 3 -4 -393 c-6 -442 -4 -408 -19 -468 -36 -149 -135 -230 -286 -235 -42 -1 -106 4 -141 12 -74 15 -193 75 -220 109 -11 13 -22 24 -27 24 -4 0 -20 15 -35 33 l-28 32 -1 -98 0 -98 -77 3 -78 3 -3 525 c-1 289 0 531 3 538 3 8 29 12 82 12 l78 0 -3 -322z m2388 -28 c5 -371 3 -353 63 -437 58 -82 197 -153 301 -153 l27 0 -3 -72 -3 -73 -62 2 c-107 3 -225 67 -295 160 -17 23 -35 40 -40 37 -4 -3 -8 -48 -8 -100 l0 -94 -75 0 -75 0 0 533 c0 294 3 537 7 541 4 4 41 5 83 4 l75 -3 5 -345z m576 334 c-3 -9 -6 -58 -6 -110 l0 -94 -70 0 -70 0 0 103 c0 57 3 107 7 110 3 4 38 7 76 7 59 0 68 -2 63 -16z"/>
 <path d="M3266 1807 c3 -8 -2 -20 -10 -27 -9 -7 -13 -16 -10 -22 3 -5 0 -16 -7 -24 -7 -8 -14 -27 -15 -40 -2 -14 -11 -38 -20 -52 -10 -15 -19 -37 -20 -50 -2 -12 -12 -34 -23 -48 -12 -15 -21 -32 -21 -39 0 -14 -73 -65 -94 -65 -8 0 -24 -11 -37 -25 -13 -13 -31 -25 -40 -25 -9 0 -19 -6 -22 -13 -2 -7 -25 -23 -51 -35 -25 -13 -46 -26 -46 -30 0 -4 12 -13 27 -19 22 -11 31 -10 51 3 13 9 26 13 29 10 4 -3 12 -1 19 4 6 6 16 10 20 8 5 -1 19 3 32 10 12 7 27 10 32 7 5 -3 12 0 15 6 4 5 12 8 19 6 6 -3 20 1 31 9 30 23 50 17 103 -31 27 -25 55 -45 60 -45 6 0 32 -25 57 -55 26 -30 53 -55 60 -55 18 0 36 -79 24 -102 -5 -10 -16 -18 -23 -18 -8 0 -24 -11 -37 -25 -13 -13 -30 -25 -36 -25 -7 0 -13 -4 -13 -10 0 -5 -16 -17 -36 -26 -20 -9 -38 -23 -41 -31 -3 -7 -21 -20 -40 -30 -19 -9 -47 -29 -63 -44 -16 -16 -32 -29 -37 -29 -14 0 -53 -39 -53 -53 0 -17 85 -41 107 -31 10 4 28 9 41 10 12 2 37 10 54 18 17 9 34 13 39 10 5 -3 30 4 55 15 25 12 50 19 54 16 5 -3 12 0 15 6 4 5 13 8 20 5 7 -2 25 2 40 10 15 8 31 12 35 9 5 -3 12 0 15 6 4 5 13 8 20 5 7 -2 23 1 37 8 13 7 30 13 38 14 8 1 36 4 62 8 46 6 47 6 96 -45 27 -28 52 -51 56 -51 4 0 28 -21 54 -47 51 -52 92 -64 145 -40 37 16 75 91 57 112 -7 9 -11 18 -8 20 8 8 -64 78 -96 95 -16 8 -35 25 -44 37 -8 13 -20 23 -27 23 -6 0 -29 16 -49 36 -34 33 -37 40 -30 68 4 17 9 63 10 101 1 39 3 72 5 75 1 3 3 25 4 50 1 25 6 53 10 63 4 10 5 36 2 57 -3 22 -1 43 4 46 5 3 7 27 3 55 -4 29 -2 54 4 61 11 14 10 67 -2 86 -4 7 -16 17 -26 22 -17 9 -23 3 -50 -47 -17 -32 -44 -80 -60 -108 -16 -27 -26 -53 -24 -57 7 -11 -24 -68 -37 -68 -6 0 -8 -4 -4 -10 7 -11 -37 -100 -60 -124 -22 -21 -57 -13 -121 30 -28 19 -55 34 -61 34 -6 0 -17 10 -25 23 -9 12 -28 29 -44 37 -81 41 -82 42 -77 127 6 108 11 162 19 205 4 25 2 43 -6 53 -15 19 -41 20 -34 2z"/>
 <path d="M6795 1360 c-3 -5 -1 -17 4 -27 5 -10 15 -40 22 -67 7 -27 27 -70 44 -96 18 -26 35 -55 38 -64 4 -9 11 -16 17 -16 5 0 31 -15 57 -34 80 -56 190 -74 283 -46 80 24 113 44 167 99 53 53 85 110 104 182 23 84 47 79 -365 79 -222 0 -367 -4 -371 -10z"/>
 <path d="M1212 968 l3 -323 215 -3 c195 -2 221 0 285 19 57 17 79 30 121 73 72 72 97 142 92 256 -4 76 -8 93 -44 160 -36 69 -44 77 -99 105 l-60 30 -258 3 -257 3 2 -323z"/>
 </g>

</svg>